<?xml version="1.0" standalone="no"?>
<!DOCTYPE svg PUBLIC "-//W3C//DTD SVG 20010904//EN"
 "http://www.w3.org/TR/2001/REC-SVG-20010904/DTD/svg10.dtd">
<svg version="1.0" xmlns="http://www.w3.org/2000/svg"
 width="400.000000pt" height="400.000000pt" viewBox="0 0 400.000000 400.000000"
 preserveAspectRatio="xMidYMid meet">
<metadata>
Created by potrace 1.16, written by Peter Selinger 2001-2019
</metadata>
<g transform="translate(0.000000,400.000000) scale(0.100000,-0.100000)"
fill="#000000" stroke="none">
<path d="M1720 3616 c-64 -18 -221 -99 -246 -127 -12 -13 -44 -62 -72 -109
-41 -68 -54 -102 -66 -167 -9 -45 -26 -108 -40 -140 -13 -32 -38 -112 -56
-178 -46 -172 -65 -201 -142 -224 -37 -11 -63 -40 -86 -94 -17 -40 -15 -53 14
-114 31 -62 60 -89 115 -103 l39 -11 0 -87 c1 -160 17 -270 59 -398 21 -67 47
-137 57 -155 15 -29 18 -61 19 -204 1 -144 4 -178 21 -224 18 -49 25 -56 59
-65 32 -10 45 -23 91 -94 47 -75 51 -86 42 -112 -7 -21 -17 -30 -36 -32 -23
-3 -27 -8 -29 -38 -2 -40 -21 -105 -22 -77 -1 28 -56 77 -85 77 -32 0 -33 -8
-3 -40 13 -14 32 -41 43 -60 10 -19 21 -37 24 -40 16 -16 40 -62 35 -69 -2 -5
2 -11 10 -15 24 -9 17 -26 -10 -26 -31 0 -43 -25 -26 -52 16 -26 3 -39 -14
-15 -13 18 -14 18 -25 -3 -16 -29 -9 -74 12 -78 10 -2 29 9 43 24 18 19 25 23
25 11 0 -9 -4 -18 -9 -21 -5 -4 -25 -29 -45 -56 -31 -43 -34 -51 -20 -57 9 -3
29 1 44 11 29 17 70 22 70 8 0 -4 11 -9 26 -10 14 -1 34 -7 45 -12 14 -8 19
-7 19 2 0 10 -50 44 -76 53 -1 0 -5 11 -9 24 -7 22 -5 23 16 17 13 -3 61 -13
107 -21 64 -11 87 -12 102 -3 14 9 28 9 59 -2 38 -12 43 -12 54 5 10 13 30 18
80 20 37 1 73 7 80 13 8 7 16 9 19 7 3 -3 3 5 1 18 -6 30 13 45 22 18 5 -17
18 -19 140 -23 73 -1 137 -6 141 -10 4 -4 2 -14 -4 -21 -13 -16 -6 -27 17 -27
9 0 39 -21 66 -45 71 -63 94 -58 34 7 -50 55 -71 117 -48 144 8 10 8 14 1 14
-6 0 -9 7 -5 15 3 9 15 15 27 13 13 -2 21 2 21 12 0 8 -6 14 -13 12 -14 -2
-16 34 -2 43 6 3 10 17 10 31 0 14 5 34 10 45 16 29 -4 56 -51 70 -37 12 -41
11 -57 -11 -25 -35 -24 -34 -65 -59 -20 -12 -43 -31 -51 -42 -7 -11 -18 -19
-24 -17 -5 2 -35 -19 -66 -45 -31 -27 -56 -45 -56 -42 0 14 90 102 156 151 39
29 115 94 168 145 75 72 106 109 132 161 39 77 42 115 18 210 -29 112 5 348
83 587 41 122 37 118 117 136 32 7 96 70 96 93 0 12 -3 12 -15 2 -12 -10 -15
-10 -15 2 0 7 13 18 29 24 22 9 30 20 35 49 5 23 3 42 -3 48 -8 8 -11 7 -11
-4 0 -23 -34 -50 -71 -58 -18 -4 -35 -13 -37 -20 -3 -10 2 -12 22 -7 39 10 34
-25 -9 -63 -39 -34 -103 -43 -124 -18 -13 16 4 37 30 37 25 0 49 11 49 21 0 5
-7 9 -15 9 -8 0 -15 9 -15 19 0 23 16 37 23 19 3 -10 7 -10 20 1 23 18 21 34
-2 28 -17 -4 -18 -2 -8 20 6 14 16 22 25 18 46 -18 58 -16 70 10 7 14 12 32
12 40 0 29 20 24 29 -7 9 -31 9 -31 10 -7 1 15 10 33 22 41 18 11 21 24 23 80
1 58 -2 70 -23 92 -33 35 -51 33 -107 -14 -49 -40 -89 -58 -102 -46 -13 13 16
41 67 66 l51 25 5 189 c5 263 -16 362 -103 474 -49 63 -196 202 -242 229 -25
14 -56 35 -70 45 -89 69 -383 149 -543 147 -51 0 -112 -6 -137 -13z m145 -377
c13 -13 38 -11 71 6 48 25 78 19 114 -21 17 -20 43 -39 58 -43 24 -7 27 -12
24 -43 -2 -22 2 -39 12 -48 9 -7 16 -19 16 -26 0 -8 7 -14 15 -14 8 0 15 7 15
15 0 25 67 23 86 -3 14 -19 46 -9 38 13 -4 9 1 17 10 21 27 11 31 -4 9 -35
-15 -19 -23 -48 -26 -91 -4 -59 -6 -65 -30 -71 -14 -4 -28 -4 -31 -1 -3 3 -6
0 -6 -6 0 -7 -6 -11 -12 -10 -21 5 -21 -42 -1 -57 17 -13 17 -14 1 -15 -10 0
-18 -5 -18 -11 0 -6 -9 -8 -22 -3 -23 7 -26 9 -71 50 -22 18 -34 23 -50 17
-22 -8 -54 -9 -207 -3 -82 3 -100 -1 -159 -35 -31 -17 -51 -9 -51 21 0 29 -30
61 -62 66 -17 2 -22 8 -20 26 2 13 -2 22 -10 22 -11 0 -15 19 -16 74 -3 70 -1
77 30 120 24 32 44 49 73 57 22 7 48 20 57 30 14 14 30 17 85 13 37 -3 72 -9
78 -15z m-260 -675 c6 -11 20 -33 31 -49 12 -17 22 -34 22 -40 -1 -14 17 -20
118 -45 77 -18 113 -21 238 -19 121 3 149 1 156 -11 13 -20 12 -37 -1 -63 -28
-53 -74 -72 -116 -49 -12 7 -27 12 -33 12 -14 0 -92 33 -151 65 -26 14 -55 25
-65 25 -16 0 -16 -2 2 -22 19 -21 19 -21 0 -14 -25 9 -56 -2 -56 -19 0 -9 -22
-21 -54 -30 -49 -14 -58 -14 -91 0 -21 8 -55 15 -76 15 -42 0 -89 18 -89 34 0
16 62 76 80 76 12 0 15 9 12 41 -3 22 1 46 7 52 6 6 11 18 11 27 0 20 21 41
35 37 5 -2 15 -12 20 -23z m266 -325 c16 -11 29 -29 29 -39 0 -11 10 -25 23
-31 l22 -12 -30 -13 c-20 -8 -36 -9 -48 -3 -23 13 -87 0 -87 -17 0 -8 6 -14
14 -14 13 0 31 -29 23 -37 -8 -7 -209 -34 -215 -29 -3 3 0 6 7 6 7 0 9 5 6 10
-3 6 -27 10 -52 10 -59 0 -49 10 24 25 52 10 86 35 49 35 -8 0 -18 5 -21 10
-4 6 6 10 24 10 21 0 29 -4 25 -13 -6 -15 33 -35 57 -30 18 4 32 50 17 59 -11
7 72 94 90 94 8 0 27 -9 43 -21z m-61 -265 c0 -10 7 -13 25 -8 18 4 27 1 31
-10 4 -10 13 -14 24 -11 11 3 20 -1 24 -11 5 -14 10 -14 42 5 37 22 58 21 36
-1 -7 -7 -12 -35 -12 -63 0 -40 -4 -53 -21 -63 -12 -8 -18 -19 -15 -28 3 -8
-1 -17 -9 -20 -10 -4 -12 -15 -8 -34 4 -21 -2 -37 -21 -63 -14 -18 -26 -41
-26 -49 0 -22 -19 -35 -65 -46 -22 -5 -44 -11 -50 -12 -5 -2 -18 0 -27 4 -20
9 -14 32 17 63 13 12 25 28 27 35 4 10 10 10 29 2 21 -10 28 -7 52 16 34 32
35 75 2 75 -13 0 -21 8 -23 23 -3 18 -8 22 -20 16 -9 -4 -82 -9 -162 -11 -80
-1 -154 -4 -165 -5 -40 -3 -75 2 -75 12 0 6 9 18 20 27 11 10 20 23 20 30 0 7
11 13 25 13 14 0 24 -5 22 -11 -1 -6 4 -14 11 -16 7 -3 12 4 12 15 0 17 9 22
53 28 28 5 94 9 144 9 55 0 93 4 93 10 0 17 -359 9 -388 -9 -5 -3 -12 3 -15
14 -6 25 20 53 41 45 8 -3 21 0 28 6 8 6 26 9 40 6 14 -2 38 2 53 9 31 17 53
18 67 4 8 -8 15 -6 24 5 14 17 46 20 55 6 3 -6 16 -4 31 4 30 15 54 10 54 -11z"/>
<path d="M1088 421 c-15 -18 -15 -20 0 -25 10 -3 38 -21 64 -40 26 -19 69 -42
95 -52 27 -9 55 -23 63 -30 8 -6 31 -15 50 -19 19 -4 40 -11 45 -15 19 -14
219 -62 335 -80 63 -10 122 -19 130 -21 9 -3 15 3 15 15 0 15 -17 25 -85 47
-47 15 -107 34 -135 44 -27 9 -63 20 -80 25 -16 4 -43 13 -60 19 -16 6 -57 18
-90 28 -56 16 -167 61 -208 84 -10 5 -22 7 -27 4 -4 -3 -10 0 -12 6 -2 5 -15
12 -28 13 -14 2 -32 6 -40 10 -9 4 -22 -2 -32 -13z"/>
</g>
</svg>
